<svg width="70" height="70" xmlns="http://www.w3.org/2000/svg"><g stroke="#8e51ff" stroke-width="1.5" fill="none" fill-rule="evenodd" stroke-linecap="round" stroke-linejoin="round"><path d="M19.45 52.927l4.8-1.5c3.15-1.05 9.6.6 13.5 1.8 1.8.6 3.75-.45 4.35-2.25.6-1.95-.45-3.9-2.4-4.35l-12.3-3.45c-5.4-1.5-11.1-.45-15.6 3L1 54.427v15.15l13.35-4.35 16.35 1.8c3 .3 6-.45 8.55-2.1l27-19.35c1.35-.9 1.8-2.55.9-4.05-.75-1.35-2.55-1.95-4.05-1.2l-21.6 11.7"/><path d="M40 46.757l11.55-6.45c2.55-1.5 5.7-1.65 8.55-.75l3.3 1.05"/><path d="M33 44.802l9.3-5.1c2.85-1.65 6.3-2.1 9.45-1.35l3 .75M32.1 1.113l-16.65 9.15c-.3.15-.45.45-.45.75v16.35c0 .3.15.6.45.75l16.65 9.15c.3.15.6.15.75 0l16.65-9.15c.3-.15.45-.45.45-.75v-16.35c0-.3-.15-.6-.45-.75L33 1.112c-.3-.15-.6-.15-.9 0z"/><path d="M49.65 10L32.4 19.75 15 10M50.25 10L33 19.75V37"/></g></svg>
