<svg width="70" height="70" xmlns="http://www.w3.org/2000/svg"><g stroke="#8e51ff" stroke-width="1.5" fill="none" fill-rule="evenodd" stroke-linecap="round" stroke-linejoin="round"><path d="M42.55 49.6H2.5c-.9 0-1.5-.75-1.5-1.5V2.5C1 1.6 1.75 1 2.5 1h66.3c.9 0 1.5.75 1.5 1.5v45.6c0 .9-.75 1.5-1.5 1.5h-4.5"/><g transform="translate(42 37)"><circle cx="11.1" cy="11.1" r="11.1"/><path d="M11.47 6.563l.9 1.95c.15.3.45.45.6.45l2.1.3c.75.15 1.05 1.05.45 1.5l-1.5 1.5c-.15.15-.15.45-.15.75l.3 2.1c.15.75-.6 1.2-1.35.9l-1.95-1.05c-.3-.15-.6-.15-.75 0l-1.95 1.05c-.6.3-1.35-.15-1.35-.9l.3-2.1c0-.3 0-.6-.3-.75l-1.5-1.5c-.6-.45-.3-1.35.45-1.5l2.1-.3c.3 0 .6-.15.6-.45l.9-1.95c.75-.75 1.65-.75 2.1 0zM16.35 21v6.9c0 .45-.45.75-.9.6l-4.05-1.8h-.45L6.9 28.5c-.45.15-.9-.15-.9-.6V21"/></g><path d="M20 32h31.5M11 15h49.5M11 23h49.5"/></g></svg>
